# xmcd
#
# Track frame offsets:
# 182
# 16695
# 30455
# 43370
# 57012
# 71092
# 79610
# 99037
# 120457
# 133292
# 148257
# 168620
# 183567
# 201782
# 221445
# 244022
# 284507
#
# Disc length: 3977 seconds
#
#
# Revision: 5
# Processed by: cddbd v1.5.2PL0 Copyright (c) Steve Scherf et al.
# Submitted via: FreeRIP 2.951 
#
DISCID=f60f8711
DTITLE=Radios, The - Live
DYEAR=1992
DGENRE=Pop
TTITLE0=Pop Stands Up (Live)
TTITLE1=Lucky Day (Live)
TTITLE2=Oh No (Live)
TTITLE3=Walking The Thin Line (Live)
TTITLE4=Devil In My Cheeckbone (Live)
TTITLE5=Sleepless Nights (Live)
TTITLE6=Gimme Love (Live)
TTITLE7=Swimming In The Pool (Live)
TTITLE8=Back To Boystown (Live)
TTITLE9=She's My Lover She's My Friend (Live)
TTITLE10=Dreaming Wild (Live)
TTITLE11=Does Your Mother Know (Live)
TTITLE12=She Goes Nana (Live)
TTITLE13=I Wish (Live)
TTITLE14=I'm Into Folk (Live)
TTITLE15=Non Non Rien n'A Changé (Live)
TTITLE16=S.O.S. To An Angel (Live)
EXTD=
EXTT0=
EXTT1=
EXTT2=
EXTT3=
EXTT4=
EXTT5=
EXTT6=
EXTT7=
EXTT8=
EXTT9=
EXTT10=
EXTT11=
EXTT12=
EXTT13=
EXTT14=
EXTT15=
EXTT16=
PLAYORDER=
